<?xml version="1.0" encoding="UTF-8"?>
<svg version="1.1" xmlns="http://www.w3.org/2000/svg" width="3163" height="873">
<path d="M0 0 C18.81 0 37.62 0 57 0 C75.45277811 21.36263928 75.45277811 21.36263928 79.66796875 30.640625 C85.38520222 42.25822666 92.24904534 52.72518935 99.65686035 63.32357788 C102.65462507 67.63218057 105.57816048 71.98997762 108.50390625 76.34765625 C109.61209462 77.99238214 110.72032951 79.63707668 111.82861328 81.28173828 C116.91159263 88.83730021 121.95383722 96.4197791 127 104 C135.91 117.365 135.91 117.365 145 131 C145.33 87.77 145.66 44.54 146 0 C164.48 0 182.96 0 202 0 C202 75.9 202 151.8 202 230 C183.52 230 165.04 230 146 230 C140.95114688 223.05782697 136.02669161 216.15458622 131.3125 209 C122.74499592 196.07221035 114.0683071 183.21881544 105.38711548 170.3671875 C104.16540174 168.55855031 102.94388 166.74978341 101.72254944 164.94088745 C100.60628627 163.28766551 99.48959467 161.6347327 98.37229919 159.98220825 C84.47274597 139.39617217 70.77765897 118.66648846 57 98 C56.67 141.56 56.34 185.12 56 230 C37.52 230 19.04 230 0 230 C0 154.1 0 78.2 0 0 Z " fill="#EEEEEE" transform="translate(2879,326)"/>
<path d="M0 0 C29.4525 -0.12375 29.4525 -0.12375 59.5 -0.25 C65.67138672 -0.28641602 71.84277344 -0.32283203 78.20117188 -0.36035156 C85.80957031 -0.37841797 85.80957031 -0.37841797 89.38537598 -0.3817749 C91.85220232 -0.38786739 94.31901768 -0.40183081 96.7857666 -0.42230225 C113.92698358 -0.55729171 130.04716819 -0.5263576 145.5 7.875 C146.16596191 8.22377197 146.83192383 8.57254395 147.51806641 8.93188477 C152.38676373 11.5358911 156.82076365 14.37740612 161 18 C161.78503906 18.63164062 162.57007813 19.26328125 163.37890625 19.9140625 C177.15573669 31.4823934 185.46785548 47.22254262 188 65 C188.27698473 68.63072788 188.33453925 72.23469122 188.3125 75.875 C188.30512817 77.32289917 188.30512817 77.32289917 188.29760742 78.80004883 C188.10817277 90.33613328 185.26691603 99.76886427 180 110 C179.59265625 110.80953125 179.1853125 111.6190625 178.765625 112.453125 C171.76661458 125.21602635 159.49078683 138.159839 145.6171875 143.23828125 C144.32167969 143.61533203 144.32167969 143.61533203 143 144 C147.21936997 150.52352312 151.75199284 156.72843611 156.5 162.875 C161.75457463 169.72308085 166.95870529 176.6012515 172.0625 183.5625 C176.8806454 190.13163665 181.733199 196.67299202 186.625 203.1875 C187.24455566 204.0129834 187.86411133 204.8384668 188.50244141 205.68896484 C191.53321945 209.72441187 194.56977017 213.75539769 197.61328125 217.78125 C198.17515137 218.52608643 198.73702148 219.27092285 199.31591797 220.03833008 C200.37407808 221.44076661 201.43421071 222.84171764 202.49658203 224.2409668 C206 228.8876502 206 228.8876502 206 230 C197.09893497 230.39620301 188.20095594 230.69703589 179.29295826 230.88080692 C175.15475763 230.96907977 171.02263763 231.08842053 166.88793945 231.2824707 C137.95239509 232.6050299 137.95239509 232.6050299 131.10473633 226.46972656 C128.10984308 222.97800257 125.94917566 219.20496004 123.99636841 215.05307007 C122.6998606 212.38154681 121.01099902 210.1646815 119.16015625 207.8515625 C118.12598104 206.44389936 117.09339137 205.0350698 116.0625 203.625 C114.88676277 202.02340519 113.71098018 200.42184367 112.53515625 198.8203125 C111.95137207 198.02399414 111.36758789 197.22767578 110.76611328 196.40722656 C107.2677871 191.63897992 103.75562941 186.88091203 100.24584961 182.12109375 C97.34887048 178.1912365 94.45549446 174.25884098 91.5703125 170.3203125 C84.6807487 160.92598605 77.70107675 151.60937202 70.59228516 142.37939453 C69.96499512 141.56196777 69.33770508 140.74454102 68.69140625 139.90234375 C68.14685791 139.19585693 67.60230957 138.48937012 67.04125977 137.76147461 C63.94239756 133.56924516 60.98958932 129.27084189 58 125 C57.67 159.65 57.34 194.3 57 230 C38.19 230 19.38 230 0 230 C0 154.1 0 78.2 0 0 Z M57 53 C57 70.82 57 88.64 57 107 C64.41764312 107.06305931 71.83430508 107.12314628 79.25198364 107.15525055 C82.70684377 107.1710366 86.16148001 107.19210191 89.61621094 107.22631836 C93.58786235 107.26540455 97.55942505 107.27975629 101.53125 107.29296875 C102.75863892 107.30845261 103.98602783 107.32393646 105.25061035 107.33988953 C114.47318573 107.34169012 121.66007251 106.03505149 129 100 C134.66622471 93.09379813 136.30919255 85.85922366 135.9375 77.0625 C135.14433466 70.06660342 133.23342246 64.02036749 127.984375 59.1171875 C119.17086455 52.73817819 109.64078451 52.71011366 99.08984375 52.8046875 C98.0177063 52.80670166 96.94556885 52.80871582 95.84094238 52.81079102 C91.87308413 52.82117845 87.90528732 52.84910046 83.9375 52.875 C75.048125 52.91625 66.15875 52.9575 57 53 Z " fill="#EEEEEE" transform="translate(1673,326)"/>
<path d="M0 0 C0.82757812 0.66386719 1.65515625 1.32773437 2.5078125 2.01171875 C13.92487851 11.69296125 22.13354086 23.82293794 29 37 C29.39703125 37.72960937 29.7940625 38.45921875 30.203125 39.2109375 C37.74747598 54.35951527 40.39732522 73.3173031 40.3125 90 C40.30686035 91.17554443 40.3012207 92.35108887 40.29541016 93.56225586 C39.85850761 125.36746324 29.77740017 154.15229921 7 177 C-19.55807423 202.35252479 -53.34483645 208.88251413 -88.86508179 208.24153137 C-97.89248873 207.99754914 -106.34211205 206.47076037 -115 204 C-115.66016113 203.82339844 -116.32032227 203.64679688 -117.00048828 203.46484375 C-143.32936389 196.31133792 -167.08833956 178.62010445 -180.87109375 155.03173828 C-198.39400538 123.49504481 -201.1730591 86.30512119 -191.37109375 51.78515625 C-186.65625951 36.62428207 -178.68298256 22.72240789 -168 11 C-167.37738281 10.30777344 -166.75476562 9.61554688 -166.11328125 8.90234375 C-124.83523041 -34.62566373 -46.01562869 -37.48625204 0 0 Z M-125.81640625 46.04296875 C-137.92334429 62.43823189 -141.36394895 82.22933103 -139.5625 102.29296875 C-137.49559716 115.91443261 -132.92643379 130.89463851 -122 140 C-121.35417969 140.55042969 -120.70835937 141.10085938 -120.04296875 141.66796875 C-103.85079753 154.96766805 -85.33840137 156.80688946 -65 155 C-51.00329207 152.67837272 -37.82289611 145.78208114 -29.0546875 134.49609375 C-16.96870695 116.52408371 -14.46271196 94.86890641 -18 73.8125 C-21.04739657 59.61504965 -28.16923156 46.27334293 -40.15625 37.7578125 C-65.2777311 21.73309603 -104.97924447 23.16777091 -125.81640625 46.04296875 Z " fill="#EEEEEE" transform="translate(2700,349)"/>
<path d="M0 0 C8.79191264 7.64299753 15.91042764 16.0552421 22 26 C22.34901367 26.56380371 22.69802734 27.12760742 23.05761719 27.70849609 C34.60492792 46.67907801 38.43777548 68.02509561 38.375 90 C38.37445618 90.72033417 38.37391235 91.44066833 38.37335205 92.18283081 C38.26215043 124.35879634 28.21241129 152.08490658 5.875 175.5 C-18.61319458 199.41398864 -50.22326108 207.61459454 -83.60644531 207.42626953 C-95.04928871 207.2796805 -105.94078226 205.98321866 -117 203 C-118.670625 202.566875 -118.670625 202.566875 -120.375 202.125 C-147.3943709 194.07667675 -170.29297367 175.54936217 -184.06933594 151.10913086 C-189.13186756 141.71959249 -192.60164194 132.37302277 -195 122 C-195.31710937 120.73929688 -195.63421875 119.47859375 -195.9609375 118.1796875 C-203.19272129 86.54063341 -197.45998421 51.75106481 -180.56762695 24.17163086 C-176.42237406 17.77813505 -171.33854444 12.4008924 -166 7 C-165.27167969 6.19949219 -164.54335937 5.39898437 -163.79296875 4.57421875 C-123.65042845 -38.54735979 -43.40388123 -35.65921982 0 0 Z M-128 46 C-140.89039653 64.23356607 -143.343041 86.50059297 -140 108.1875 C-136.73258571 123.52276988 -128.87438001 136.65694765 -115.7421875 145.3984375 C-104.13529079 152.17739427 -92.95724478 154.35273573 -79.6875 154.3125 C-78.1106543 154.33666992 -78.1106543 154.33666992 -76.50195312 154.36132812 C-60.42494827 154.3712095 -46.91346082 149.23908586 -35.15625 138.24609375 C-21.5736194 124.0975202 -17.72855306 105.52337214 -18.0625 86.42578125 C-18.77997324 72.83863173 -22.43631895 61.7881357 -29 50 C-29.58394531 48.93072266 -29.58394531 48.93072266 -30.1796875 47.83984375 C-36.44473355 37.802051 -49.63050658 31.31765803 -60.6875 28.1875 C-84.49403417 23.29112063 -111.27809581 27.05960105 -128 46 Z " fill="#EDEDED" transform="translate(1496,350)"/>
<path d="M0 0 C18.81 0 37.62 0 57 0 C57 29.04 57 58.08 57 88 C84.06 88 111.12 88 139 88 C139 58.96 139 29.92 139 0 C157.48 0 175.96 0 195 0 C195 75.9 195 151.8 195 230 C176.52 230 158.04 230 139 230 C139 200.63 139 171.26 139 141 C111.94 141 84.88 141 57 141 C57 170.37 57 199.74 57 230 C38.19 230 19.38 230 0 230 C0 154.1 0 78.2 0 0 Z " fill="#EDEDED" transform="translate(964,326)"/>
<path d="M0 0 C58.41 0 116.82 0 177 0 C177 17.16 177 34.32 177 52 C174.03 54.97 171.06 57.94 168 61 C166.32552249 62.89563491 164.65151973 64.79190741 163.00390625 66.7109375 C160.43129928 69.64962695 157.78054193 72.51133442 155.125 75.375 C150.03201929 80.87147112 144.9981784 86.41702559 140 92 C134.72971517 97.87802939 129.42767815 103.72500385 124.08642578 109.53857422 C120.4701998 113.47792546 116.89117595 117.44926265 113.3203125 121.4296875 C110.68920217 124.34428447 108.03347525 127.23539224 105.375 130.125 C102.3977736 133.36213091 99.44047034 136.61137856 96.5625 139.9375 C92.98197688 144.06755185 89.26420238 148.0660407 85.54980469 152.07519531 C80.98382966 157.00667678 76.48522583 161.99474798 72 167 C69.03 170.3 66.06 173.6 63 177 C102.93 177.33 142.86 177.66 184 178 C184 195.16 184 212.32 184 230 C120.97 230 57.94 230 -7 230 C-7 177 -7 177 5 164 C8.00686776 160.67239968 11.00861492 157.3413826 14 154 C18.84470939 148.59662142 23.71209075 143.21635577 28.625 137.875 C31.60218281 134.63782784 34.55952856 131.38862271 37.4375 128.0625 C41.01802312 123.93244815 44.73579762 119.9339593 48.45019531 115.92480469 C53.01596642 110.99354346 57.51744662 106.00702032 62 101 C66.84470939 95.59662142 71.71209075 90.21635577 76.625 84.875 C79.60218281 81.63782784 82.55952856 78.38862271 85.4375 75.0625 C89.07400001 70.86247457 92.85802742 66.80164409 96.65014648 62.74243164 C97.13942627 62.21641357 97.62870605 61.69039551 98.1328125 61.1484375 C98.56480957 60.68614746 98.99680664 60.22385742 99.44189453 59.74755859 C101.69358578 57.22207976 103.83392808 54.5992863 106 52 C53.53 51.505 53.53 51.505 0 51 C0 34.17 0 17.34 0 0 Z " fill="#EEEEEE" transform="translate(2201,326)"/>
<path d="M0 0 C18.81 0 37.62 0 57 0 C57 75.9 57 151.8 57 230 C38.19 230 19.38 230 0 230 C0 154.1 0 78.2 0 0 Z " fill="#EDEDED" transform="translate(2005,326)"/>
<path d="M0 0 C0.26950218 0.79637627 0.26950218 0.79637627 0.54444885 1.60884094 C8.34140564 24.64343453 16.14609205 47.67439764 24.1875 70.625 C30.44149501 88.47727415 36.60799323 106.35896968 42.75 124.25 C42.98259773 124.92752949 43.21519547 125.60505898 43.45484161 126.30311966 C43.92414791 127.67016505 44.39345231 129.03721109 44.86275482 130.40425777 C46.0372945 133.82553425 47.21196135 137.24676703 48.38671875 140.66796875 C48.61949776 141.34591806 48.85227676 142.02386738 49.09210968 142.72236061 C52.53632622 152.7522274 55.9917442 162.77817531 59.45703125 172.80078125 C59.67525669 173.43201527 59.89348213 174.06324928 60.11832047 174.7136116 C62.38471885 181.26900076 64.65291864 187.82376368 66.92285156 194.37792969 C67.65821168 196.50325225 68.39356369 198.62857761 69.12890625 200.75390625 C69.44882034 201.67625565 69.76873444 202.59860504 70.0983429 203.54890442 C72.79524604 211.34660463 75.3902356 219.17070681 78 227 C66.12 230.96 54.24 234.92 42 239 C37.50062042 227.75155105 37.50062042 227.75155105 35.67260742 222.39672852 C35.26024841 221.19316711 34.8478894 219.98960571 34.42303467 218.74957275 C33.98382141 217.45935897 33.54463349 216.16913655 33.10546875 214.87890625 C32.6371569 213.50957665 32.16858363 212.14033643 31.69976807 210.7711792 C30.70790113 207.87319358 29.71747429 204.97472184 28.72824097 202.07583618 C26.38231562 195.20189906 24.02836167 188.33071032 21.67434883 181.45953941 C21.15147345 179.93328316 20.62868076 178.40699858 20.10597038 176.88068581 C15.92600913 164.67617623 11.70489281 152.4867419 7.4375 140.3125 C3.1498308 128.07537597 -1.10019055 115.82575676 -5.3125 103.5625 C-5.6628704 102.54248209 -5.6628704 102.54248209 -6.02031898 101.50185776 C-8.17913361 95.21612708 -10.33652079 88.92990699 -12.49227905 82.64312744 C-17.1292723 69.1208076 -21.76884478 55.60011868 -26.51953125 42.1171875 C-26.85632401 41.16061752 -27.19311676 40.20404755 -27.54011536 39.2184906 C-29.06652104 34.88696818 -30.59893538 30.55770804 -32.14086914 26.23168945 C-32.66432004 24.75214941 -33.18768257 23.27257811 -33.7109375 21.79296875 C-33.94726395 21.13686615 -34.18359039 20.48076355 -34.42707825 19.80477905 C-35.39913402 17.04536938 -36 14.95418191 -36 12 C-31.19591067 10.28701983 -26.39039462 8.57812811 -21.58349609 6.87304688 C-19.94767805 6.29214466 -18.31225904 5.71011753 -16.67724609 5.12695312 C-14.33013676 4.29002148 -11.98163282 3.45711573 -9.6328125 2.625 C-8.89942657 2.36251465 -8.16604065 2.1000293 -7.41043091 1.82958984 C-2.22774341 0 -2.22774341 0 0 0 Z " fill="#FF5621" transform="translate(419,317)"/>
<path d="M0 0 C3.12048395 0.60807664 5.14532995 1.60194454 7.6953125 3.484375 C8.40171875 4.00064453 9.108125 4.51691406 9.8359375 5.04882812 C10.59132813 5.61021484 11.34671875 6.17160156 12.125 6.75 C13.75248424 7.94287197 15.38009181 9.13557569 17.0078125 10.328125 C17.83829102 10.93978516 18.66876953 11.55144531 19.52441406 12.18164062 C23.33224203 14.97855411 27.1664572 17.73849964 31 20.5 C32.50014615 21.58313095 34.0001457 22.66646496 35.5 23.75 C36.2425 24.28625 36.985 24.8225 37.75 25.375 C44.5 30.25 44.5 30.25 46.75097656 31.87573242 C48.24768701 32.95667191 49.74443168 34.03756401 51.24121094 35.1184082 C55.04182637 37.8629754 58.84180298 40.60841966 62.640625 43.35546875 C69.7293164 48.48051716 76.82159005 53.60028153 83.9375 58.6875 C84.51081055 59.09766357 85.08412109 59.50782715 85.67480469 59.93041992 C88.09470676 61.65760475 90.52590182 63.35060122 93 65 C91.67789709 68.0118602 90.36610497 69.80540131 87.796875 71.84765625 C87.15371338 72.36448975 86.51055176 72.88132324 85.84790039 73.41381836 C84.8094397 74.22991577 84.8094397 74.22991577 83.75 75.0625 C83.03126709 75.63685791 82.31253418 76.21121582 81.57202148 76.80297852 C76.52744359 80.82519455 71.44338139 84.797972 66.35791016 88.76831055 C60.24956653 93.55349455 54.28105255 98.5057078 48.30078125 103.44921875 C38.61837805 111.45190981 28.88049315 119.38397945 18.9609375 127.09155273 C16.19032131 129.25008401 13.4598938 131.43744917 10.7890625 133.71875 C9.80679688 134.5540625 8.82453125 135.389375 7.8125 136.25 C6.95269531 136.99765625 6.09289062 137.7453125 5.20703125 138.515625 C4.47871094 139.00546875 3.75039063 139.4953125 3 140 C-0.82997489 138.7233417 -2.20360308 136.44185036 -4.5 133.3125 C-5.38177595 132.13463996 -6.26462948 130.95758603 -7.1484375 129.78125 C-7.60959961 129.16507813 -8.07076172 128.54890625 -8.54589844 127.9140625 C-10.03725498 125.95096054 -11.5620837 124.01930197 -13.1015625 122.09375 C-13.60623047 121.46170654 -14.11089844 120.82966309 -14.63085938 120.1784668 C-15.61596311 118.94821388 -16.60417951 117.72044603 -17.59570312 116.49536133 C-21 112.22089957 -21 112.22089957 -21 110 C-19.45111498 108.58293498 -17.83238466 107.24190504 -16.1875 105.9375 C-15.18074219 105.13183594 -14.17398438 104.32617188 -13.13671875 103.49609375 C-12.61384277 103.08085449 -12.0909668 102.66561523 -11.55224609 102.23779297 C-9.18261046 100.34819676 -6.84236208 98.42323813 -4.5 96.5 C-0.83333333 93.5 2.83333333 90.5 6.5 87.5 C7.40105469 86.76265625 8.30210937 86.0253125 9.23046875 85.265625 C11.12844551 83.71297828 13.02690757 82.16092466 14.92578125 80.609375 C15.87839844 79.83078125 16.83101562 79.0521875 17.8125 78.25 C18.71484375 77.51394531 19.6171875 76.77789062 20.546875 76.01953125 C22.57518614 74.34972733 24.57242192 72.65225175 26.5625 70.9375 C29 69 29 69 31 69 C27.12847059 64.86637479 22.97255896 61.69982835 18.3125 58.5 C16.79492782 57.44363448 15.27802329 56.38630928 13.76171875 55.328125 C12.97974121 54.78349609 12.19776367 54.23886719 11.39208984 53.67773438 C7.44180952 50.90713564 3.53280843 48.08004901 -0.375 45.25 C-1.50047241 44.43559448 -1.50047241 44.43559448 -2.64868164 43.60473633 C-8.43881592 39.41192457 -14.22346356 35.21152767 -20 31 C-19.3837416 27.72684107 -18.24576263 25.6532234 -16.26953125 22.98828125 C-15.71330078 22.22966797 -15.15707031 21.47105469 -14.58398438 20.68945312 C-13.99939453 19.90505859 -13.41480469 19.12066406 -12.8125 18.3125 C-8.37637017 12.30829691 -4.08543506 6.24946073 0 0 Z " fill="#FF5722" transform="translate(537,366)"/>
<path d="M0 0 C3.19886226 1.36110884 4.8112922 2.70470503 6.76953125 5.5625 C7.26300049 6.2726123 7.75646973 6.98272461 8.26489258 7.71435547 C9.03095825 8.84574951 9.03095825 8.84574951 9.8125 10 C10.87484733 11.54437586 11.93734678 13.08864709 13 14.6328125 C13.51175781 15.38208008 14.02351563 16.13134766 14.55078125 16.90332031 C15.79726019 18.70668303 17.06984442 20.48113698 18.375 22.2421875 C19.014375 23.11101562 19.65375 23.97984375 20.3125 24.875 C21.14201172 25.98488281 21.14201172 25.98488281 21.98828125 27.1171875 C22.32214844 27.73851562 22.65601563 28.35984375 23 29 C21.85600003 32.43199991 21.22662783 32.798039 18.30859375 34.71484375 C17.53668701 35.23006592 16.76478027 35.74528809 15.96948242 36.27612305 C14.71615112 37.09850464 14.71615112 37.09850464 13.4375 37.9375 C7.06342251 42.20306742 0.79278326 46.54438729 -5.3125 51.1875 C-11.05425389 55.55186756 -16.85878414 59.80585234 -22.74926758 63.9675293 C-25.49373584 65.83758135 -25.49373584 65.83758135 -28 68 C-26.72769531 68.98226562 -26.72769531 68.98226562 -25.4296875 69.984375 C-19.07957793 74.91512358 -12.8304764 79.92655145 -6.75 85.1875 C-1.26870976 89.92886875 4.296767 94.52605622 10 99 C11.24228992 99.97773447 12.48446927 100.95560942 13.7265625 101.93359375 C17.14821687 104.62600803 20.57333388 107.31396776 24 110 C22.29412942 113.97711541 19.62728543 117.15807583 16.9375 120.5 C11.83392924 126.911504 6.88202522 133.41830674 2 140 C-2.43906935 138.5583206 -5.50309917 136.11219305 -8.9375 133.0625 C-13.45284096 129.14606706 -18.02594026 125.34957757 -22.75 121.6875 C-28.07630289 117.54764962 -33.30554171 113.30402971 -38.5 109 C-43.61470178 104.76349366 -48.75898144 100.57929098 -54 96.5 C-60.04032185 91.79623393 -65.96813421 86.96449682 -71.85717773 82.07275391 C-75.04818797 79.42246202 -78.24336409 76.78965477 -81.5234375 74.25 C-82.52632813 73.46625 -83.52921875 72.6825 -84.5625 71.875 C-85.43003906 71.21242188 -86.29757812 70.54984375 -87.19140625 69.8671875 C-89 68 -89 68 -89 64 C-87.72509766 62.65063477 -87.72509766 62.65063477 -85.9140625 61.44140625 C-85.23996338 60.98000244 -84.56586426 60.51859863 -83.87133789 60.04321289 C-83.13004639 59.55457764 -82.38875488 59.06594238 -81.625 58.5625 C-80.05257993 57.49076417 -78.48099138 56.41780752 -76.91015625 55.34375 C-76.09562988 54.79203125 -75.28110352 54.2403125 -74.44189453 53.671875 C-70.59723851 51.03958102 -66.83070708 48.30259951 -63.0625 45.5625 C-61.55352662 44.46985705 -60.04441125 43.37741017 -58.53515625 42.28515625 C-57.78637207 41.74262207 -57.03758789 41.20008789 -56.26611328 40.64111328 C-52.51355206 37.92351831 -48.7565875 35.21202514 -45 32.5 C-40.45220514 29.21611457 -35.90490621 25.93154952 -31.359375 22.64453125 C-23.72656329 17.12631254 -16.08852691 11.61631613 -8.41308594 6.1574707 C-5.58059678 4.14077663 -2.77043379 2.10124688 0 0 Z " fill="#FF5722" transform="translate(343,366)"/>
<path d="M0 0 C1.76224098 0.05030801 3.52462285 0.09590911 5.28710938 0.13671875 C9.54913958 0.24544336 13.80420356 0.41709099 18.0625 0.625 C15.34125091 3.3983736 12.66869656 6.07838265 9.56640625 8.421875 C8.93275146 8.90100342 8.29909668 9.38013184 7.64624023 9.8737793 C6.97923096 10.36918213 6.31222168 10.86458496 5.625 11.375 C4.92125244 11.89940674 4.21750488 12.42381348 3.49243164 12.96411133 C-3.12328692 17.84429126 -9.9380723 22.31946968 -16.9375 26.625 C-17.51790039 26.98658203 -18.09830078 27.34816406 -18.69628906 27.72070312 C-58.89026938 52.72343142 -112.85648631 76.625 -160.9375 76.625 C-160.9375 69.035 -160.9375 61.445 -160.9375 53.625 C-158.89433594 53.26148438 -156.85117187 52.89796875 -154.74609375 52.5234375 C-116.69720857 45.67882072 -81.45396062 34.82233112 -46.9375 17.125 C-45.95990723 16.62782471 -44.98231445 16.13064941 -43.97509766 15.6184082 C-39.60332597 13.32991581 -35.43124042 11.07634944 -31.55249023 8.01416016 C-21.1538133 -0.03548056 -12.89365696 -0.64903013 0 0 Z " fill="#FF5722" transform="translate(641.9375,705.375)"/>
<path d="M0 0 C38.26176167 -2.3663316 38.26176167 -2.3663316 54.64501953 10.29785156 C58.92783924 13.39341646 63.61502743 15.72657364 68.3125 18.125 C69.27978027 18.62273926 70.24706055 19.12047852 71.24365234 19.63330078 C103.53701829 36.06231543 137.49359929 46.42170968 173.24365234 52.15209961 C177.9043959 52.9043959 177.9043959 52.9043959 179 54 C179.08700342 55.63472882 179.10701063 57.27314055 179.09765625 58.91015625 C179.09443359 59.89951172 179.09121094 60.88886719 179.08789062 61.90820312 C179.07951172 62.94912109 179.07113281 63.99003906 179.0625 65.0625 C179.05798828 66.10728516 179.05347656 67.15207031 179.04882812 68.22851562 C179.03699913 70.8190666 179.02051689 73.40950559 179 76 C171.13335479 75.43518032 163.4876637 74.32575046 155.75 72.8125 C154.62464844 72.59327881 153.49929688 72.37405762 152.33984375 72.14819336 C101.15406097 61.92611679 54.62226508 40.4435232 12.3125 10.125 C11.54558838 9.57739014 10.77867676 9.02978027 9.98852539 8.46557617 C8.90559204 7.68210815 8.90559204 7.68210815 7.80078125 6.8828125 C7.16309814 6.42277832 6.52541504 5.96274414 5.8684082 5.48876953 C3.74922478 3.80017936 1.88375429 1.94507612 0 0 Z " fill="#FF5722" transform="translate(223,706)"/>
<path d="M0 0 C51.55748791 5.50613949 103.8820391 22.92123807 147 52 C147.6614502 52.44053711 148.32290039 52.88107422 149.00439453 53.33496094 C156.32747507 58.22163888 163.50497841 63.27809125 170.5 68.625 C171.05840576 69.05103516 171.61681152 69.47707031 172.19213867 69.91601562 C173.48217851 70.9178441 174.74451395 71.95519483 176 73 C176 73.33 176 73.66 176 74 C137.35730974 76.38989045 137.35730974 76.38989045 121.05761719 63.55566406 C117.85866339 61.13709102 114.42872087 59.27916283 110.875 57.4375 C110.20186768 57.08445801 109.52873535 56.73141602 108.83520508 56.36767578 C74.39189534 38.71969324 37.87656213 29.65120671 0 23 C0 15.41 0 7.82 0 0 Z " fill="#FF5722" transform="translate(481,91)"/>
<path d="M0 0 C0 7.59 0 15.18 0 23 C-2.27390625 23.4125 -4.5478125 23.825 -6.890625 24.25 C-42.14555957 30.74098401 -76.21551121 39.92597939 -108 57 C-109.2658514 57.6531307 -110.53280141 58.30413608 -111.80078125 58.953125 C-119.10527524 62.66607888 -119.10527524 62.66607888 -125.87841797 67.23852539 C-135.96630621 74.90351938 -144.51649335 75.11957878 -156.875 74.5625 C-158.64182331 74.51723428 -160.40876005 74.47619123 -162.17578125 74.43945312 C-166.45338553 74.34149331 -170.72539739 74.186922 -175 74 C-172.2084864 71.14319664 -169.47256988 68.44252601 -166.2421875 66.08984375 C-165.54464355 65.58130859 -164.84709961 65.07277344 -164.12841797 64.54882812 C-163.38479004 64.01708984 -162.64116211 63.48535156 -161.875 62.9375 C-160.68801514 62.08768555 -160.68801514 62.08768555 -159.47705078 61.22070312 C-118.23901683 31.98909065 -71.72771642 12.02404071 -22 3 C-21.04851074 2.82500977 -20.09702148 2.65001953 -19.11669922 2.46972656 C-5.52342203 0 -5.52342203 0 0 0 Z " fill="#FF5722" transform="translate(401,91)"/>
<path d="M0 0 C4.24964127 -0.14513802 8.49864635 -0.23402037 12.75 -0.3125 C14.55984375 -0.3753418 14.55984375 -0.3753418 16.40625 -0.43945312 C17.56640625 -0.45556641 18.7265625 -0.47167969 19.921875 -0.48828125 C20.99018555 -0.51446533 22.05849609 -0.54064941 23.15917969 -0.56762695 C26 0 26 0 28.26318359 2.35424805 C28.83633301 3.22734619 29.40948242 4.10044434 30 5 C30.92425781 6.39605469 30.92425781 6.39605469 31.8671875 7.8203125 C56.09725493 47.70092933 81 100.12412893 81 148 C73.41 148 65.82 148 58 148 C57.278125 144.2875 56.55625 140.575 55.8125 136.75 C46.45707653 89.64710248 30.10285833 43.23117045 1.4765625 4.1953125 C0 2 0 2 0 0 Z " fill="#FF5722" transform="translate(705,245)"/>
<path d="M0 0 C7.59 0 15.18 0 23 0 C15.5646565 48.28887923 2.43442967 92.57883636 -21.1875 135.5625 C-21.59162109 136.30089111 -21.99574219 137.03928223 -22.41210938 137.80004883 C-23.19776599 139.20982669 -24.00365817 140.60854608 -24.83081055 141.99438477 C-26.02982086 143.97522261 -26.02982086 143.97522261 -26.94458008 146.06616211 C-28.11223913 148.27093621 -28.97316587 149.52682406 -31 151 C-35.46508249 151.85898069 -39.78733285 151.65901168 -44.3125 151.4375 C-45.53001953 151.40591797 -46.74753906 151.37433594 -48.00195312 151.34179688 C-51.00375435 151.25939449 -54.00064653 151.14439803 -57 151 C-55.7703168 147.72736988 -54.40270263 144.84586174 -52.49609375 141.91796875 C-52.00737793 141.15959717 -51.51866211 140.40122559 -51.01513672 139.61987305 C-50.4945166 138.81718994 -49.97389648 138.01450684 -49.4375 137.1875 C-22.62101163 95.14184525 -7.93813715 49.04501638 0 0 Z " fill="#FF5722" transform="translate(764,474)"/>
<path d="M0 0 C7.26 0 14.52 0 22 0 C24.2430797 7.85077894 24.2430797 7.85077894 24.89453125 11.7578125 C25.11604858 13.04909058 25.11604858 13.04909058 25.34204102 14.36645508 C25.49729248 15.2767749 25.65254395 16.18709473 25.8125 17.125 C31.12680851 46.8078376 39.62578196 75.89699162 53 103 C53.68541313 104.42292802 54.37031519 105.84610234 55.0546875 107.26953125 C61.79410442 121.14134828 69.20034592 135.03475348 78.73046875 147.2109375 C80 149 80 149 80 151 C75.81398464 151.29191181 71.63058789 151.46845805 67.4375 151.625 C66.25607422 151.70878906 65.07464844 151.79257812 63.85742188 151.87890625 C55.25909045 152.11975587 55.25909045 152.11975587 51.76074219 149.00854492 C49.92426128 146.42187888 48.43971701 143.82462181 47 141 C46.20013455 139.67546146 45.39588376 138.35355457 44.5859375 137.03515625 C43.84035274 135.71576361 43.10368651 134.39130005 42.375 133.0625 C41.96314453 132.31145996 41.55128906 131.56041992 41.12695312 130.78662109 C18.95180951 89.7527789 5.05251867 46.39130782 0 0 Z " fill="#FF5722" transform="translate(96,474)"/>
<path d="M0 0 C1.084021 0.00523682 2.16804199 0.01047363 3.28491211 0.01586914 C4.45473633 0.0190918 5.62456055 0.02231445 6.82983398 0.02563477 C8.0615332 0.03401367 9.29323242 0.04239258 10.56225586 0.05102539 C12.41560547 0.05779297 12.41560547 0.05779297 14.30639648 0.06469727 C17.37089703 0.07652931 20.43530307 0.09301366 23.49975586 0.11352539 C22.18972442 2.83216043 20.75414061 5.36322307 19.10131836 7.88696289 C-5.9593059 46.58056674 -22.24425655 87.57201208 -31.20336914 132.72680664 C-33.97532498 146.58860623 -33.97532498 146.58860623 -35.50024414 148.11352539 C-37.13497296 148.20052881 -38.77338469 148.22053602 -40.41040039 148.21118164 C-41.39975586 148.20795898 -42.38911133 148.20473633 -43.40844727 148.20141602 C-44.44936523 148.19303711 -45.4902832 148.1846582 -46.56274414 148.17602539 C-47.6075293 148.17151367 -48.65231445 148.16700195 -49.72875977 148.16235352 C-52.31931074 148.15052452 -54.90974973 148.13404228 -57.50024414 148.11352539 C-54.79261731 124.75057385 -22.26546356 1.01097945 0 0 Z " fill="#FF5722" transform="translate(153.500244140625,245.886474609375)"/>
<path d="M0 0 C12.87 0 25.74 0 39 0 C39 12.87 39 25.74 39 39 C26.13 39 13.26 39 0 39 C0 26.13 0 13.26 0 0 Z " fill="#FF5721" transform="translate(422,753)"/>
<path d="M0 0 C12.54 0 25.08 0 38 0 C38 12.87 38 25.74 38 39 C25.46 39 12.92 39 0 39 C0 26.13 0 13.26 0 0 Z " fill="#FF5621" transform="translate(763,414)"/>
<path d="M0 0 C12.54 0 25.08 0 38 0 C38 12.87 38 25.74 38 39 C25.46 39 12.92 39 0 39 C0 26.13 0 13.26 0 0 Z " fill="#FF5621" transform="translate(81,414)"/>
<path d="M0 0 C12.87 0 25.74 0 39 0 C39 12.54 39 25.08 39 38 C26.13 38 13.26 38 0 38 C0 25.46 0 12.92 0 0 Z " fill="#FF5721" transform="translate(422,81)"/>
<path d="M0 0 C12.54 0 25.08 0 38 0 C38 12.54 38 25.08 38 38 C25.46 38 12.92 38 0 38 C0 25.46 0 12.92 0 0 Z " fill="#FF5721" transform="translate(669,646)"/>
<path d="M0 0 C12.54 0 25.08 0 38 0 C38 12.54 38 25.08 38 38 C25.46 38 12.92 38 0 38 C0 25.46 0 12.92 0 0 Z " fill="#FF5722" transform="translate(186,646)"/>
<path d="M0 0 C12.54 0 25.08 0 38 0 C38 12.54 38 25.08 38 38 C25.46 38 12.92 38 0 38 C0 25.46 0 12.92 0 0 Z " fill="#FF5722" transform="translate(669,184)"/>
<path d="M0 0 C12.54 0 25.08 0 38 0 C38 12.54 38 25.08 38 38 C25.46 38 12.92 38 0 38 C0 25.46 0 12.92 0 0 Z " fill="#FF5722" transform="translate(186,184)"/>
</svg>
